HIERARCHY
ROOT joint_Root
{
	OFFSET 0.0 0.0 0.0
	CHANNELS 6 Xposition Yposition Zposition Zrotation Xrotation Yrotation 
	JOINT Hips
	{
		OFFSET -0.726466 93.3139 -2.00062
		CHANNELS 6 Xposition Yposition Zposition Zrotation Xrotation Yrotation 
		JOINT Spine
		{
			OFFSET 15.7357 0.0 0.0
			CHANNELS 6 Xposition Yposition Zposition Zrotation Xrotation Yrotation 
			JOINT Chest
			{
				OFFSET 8.98455 -0.406207 0.0
				CHANNELS 6 Xposition Yposition Zposition Zrotation Xrotation Yrotation 
				JOINT Neck
				{
					OFFSET 16.3773 0.0 0.0
					CHANNELS 6 Xposition Yposition Zposition Zrotation Xrotation Yrotation 
					JOINT Head
					{
						OFFSET 6.45672 0.0 0.0
						CHANNELS 6 Xposition Yposition Zposition Zrotation Xrotation Yrotation 
						End Site
						{
							OFFSET 0.0 0.0 0.0
						}
					}
				}
				JOINT Shoulder_L
				{
					OFFSET 12.9942 -0.242716 4.98039
					CHANNELS 6 Xposition Yposition Zposition Zrotation Xrotation Yrotation 
					JOINT UpperArm_L
					{
						OFFSET 5.34809 0.0 0.0
						CHANNELS 6 Xposition Yposition Zposition Zrotation Xrotation Yrotation 
						JOINT LowerArm_L
						{
							OFFSET 24.3286 1.87007e-05 0.0
							CHANNELS 6 Xposition Yposition Zposition Zrotation Xrotation Yrotation 
							JOINT Hand_L
							{
								OFFSET 22.2916 0.0 0.0
								CHANNELS 6 Xposition Yposition Zposition Zrotation Xrotation Yrotation 
								End Site
								{
									OFFSET 0.0 0.0 0.0
								}
							}
						}
					}
				}
				JOINT Shoulder_R
				{
					OFFSET 12.9945 -0.242716 -4.98039
					CHANNELS 6 Xposition Yposition Zposition Zrotation Xrotation Yrotation 
					JOINT UpperArm_R
					{
						OFFSET -5.34813 0.0 0.0
						CHANNELS 6 Xposition Yposition Zposition Zrotation Xrotation Yrotation 
						JOINT LowerArm_R
						{
							OFFSET -24.3289 0.000322201 0.0
							CHANNELS 6 Xposition Yposition Zposition Zrotation Xrotation Yrotation 
							JOINT Hand_R
							{
								OFFSET -22.2915 -0.000108084 0.0
								CHANNELS 6 Xposition Yposition Zposition Zrotation Xrotation Yrotation 
								End Site
								{
									OFFSET 0.0 0.0 0.0
								}
							}
						}
					}
				}
			}
		}
		JOINT UpperLeg_L
		{
			OFFSET -2.19248 -6.46944 0.0
			CHANNELS 6 Xposition Yposition Zposition Zrotation Xrotation Yrotation 
			JOINT LowerLeg_L
			{
				OFFSET 39.0811 0.0 -1.23785e-05
				CHANNELS 6 Xposition Yposition Zposition Zrotation Xrotation Yrotation 
				JOINT Foot_L
				{
					OFFSET 40.9854 0.0 -1.26872e-05
					CHANNELS 6 Xposition Yposition Zposition Zrotation Xrotation Yrotation 
					JOINT Toes_L
					{
						OFFSET 11.7543 0.0 0.0
						CHANNELS 6 Xposition Yposition Zposition Zrotation Xrotation Yrotation 
						End Site
						{
							OFFSET 0.0 0.0 0.0
						}
					}
				}
			}
		}
		JOINT UpperLeg_R
		{
			OFFSET -2.19251 6.46944 0.0
			CHANNELS 6 Xposition Yposition Zposition Zrotation Xrotation Yrotation 
			JOINT LowerLeg_R
			{
				OFFSET -39.0811 -0.00228153 -0.0401928
				CHANNELS 6 Xposition Yposition Zposition Zrotation Xrotation Yrotation 
				JOINT Foot_R
				{
					OFFSET -40.9854 0.0 0.0
					CHANNELS 6 Xposition Yposition Zposition Zrotation Xrotation Yrotation 
					JOINT Toes_R
					{
						OFFSET -11.7543 0.0 0.0
						CHANNELS 6 Xposition Yposition Zposition Zrotation Xrotation Yrotation 
						End Site
						{
							OFFSET 0.0 0.0 0.0
						}
					}
				}
			}
		}
	}
}
MOTION
Frames:	4
Frame Time:	0.0333333
0.000000 0.000000 0.000000 0.000000 0.000000 -0.000000 -2.823110 89.027500 -3.917720 88.656400 -5.466200 -2.854700 15.735700 0.000005 -0.000001 103.753000 82.996900 -104.411000 8.984550 -0.406207 -0.000000 5.865860 3.332060 -1.487420 16.377300 -0.000001 -0.000001 -3.703670 -0.236919 0.765918 6.456720 -0.000001 -0.000000 -2.920000 -3.511420 1.804490 12.994200 -0.242716 4.980390 -88.135300 -4.552890 -67.702600 5.348090 -0.000007 -0.000001 -74.988500 26.251000 16.083500 24.328600 0.000019 0.000005 -2.130460 -0.212585 -84.289100 22.291600 -0.000001 0.000005 1.936300 5.651940 -15.194500 12.994500 -0.242716 -4.980390 88.989300 3.216200 -72.549400 -5.348130 -0.000001 -0.000004 -62.891300 36.464100 -18.881800 -24.328900 0.000322 -0.000009 -1.270440 -0.299041 -76.657200 -22.291500 -0.000108 -0.000004 12.069300 5.635430 -13.751500 -2.192480 -6.469440 -0.000000 177.001000 -5.668730 -32.170900 39.081100 -0.000007 -0.000012 0.155121 -0.233381 33.610700 40.985400 -0.000006 -0.000013 4.372510 -5.716270 -56.766100 11.754300 -0.000000 0.000003 -0.008814 -0.094561 -20.428300 -2.192510 6.469440 -0.000001 176.866000 4.961000 -178.322000 -39.081100 -0.002282 -0.040193 0.109111 -0.026718 75.865800 -40.985400 0.000008 0.000006 7.151330 -8.157640 -36.796500 -11.754300 -0.000006 -0.000006 -0.027021 -0.203470 -24.902000
0.000000 0.000000 0.000000 0.000000 0.000000 -0.000000 -2.661140 85.596100 5.247830 91.379200 -2.191020 -1.755820 15.735700 0.000005 -0.000001 89.683000 82.640000 -91.352100 8.984550 -0.406207 -0.000000 6.954930 -0.069378 -3.330390 16.377300 -0.000001 -0.000001 -4.352680 -1.278140 1.349370 6.456720 -0.000001 -0.000000 -3.602930 -1.544090 2.189940 12.994200 -0.242716 4.980390 -89.206800 -2.158110 -69.818900 5.348090 -0.000007 -0.000001 -70.660800 25.442200 8.266170 24.328600 0.000019 0.000005 -5.847770 -0.303867 -87.032800 22.291600 -0.000001 0.000005 2.084230 5.657010 -15.724500 12.994500 -0.242716 -4.980390 87.740800 6.615560 -71.098900 -5.348130 -0.000001 -0.000004 -63.885100 34.547400 -12.500500 -24.328900 0.000322 -0.000009 3.709810 1.449650 -68.761300 -22.291500 -0.000108 -0.000004 11.218300 5.646790 -14.675200 -2.192480 -6.469440 -0.000000 174.469000 -2.090810 -33.749300 39.081100 -0.000007 -0.000012 -0.358751 0.294178 50.648800 40.985400 -0.000006 -0.000013 3.386740 -5.771480 -69.194000 11.754300 -0.000000 0.000003 -0.000001 -0.000014 -16.578000 -2.192510 6.469440 -0.000001 175.559000 7.109120 172.823000 -39.081100 -0.002282 -0.040193 0.006142 0.000164 95.090600 -40.985400 0.000008 0.000006 9.032530 -9.894120 -36.648000 -11.754300 -0.000006 -0.000006 -0.026079 -0.198893 -24.712600
0.000000 0.000000 0.000000 0.000000 0.000000 -0.000000 -2.355520 83.482900 14.191600 92.662100 -1.327650 0.235238 15.735700 0.000005 -0.000001 84.887700 81.494700 -87.099900 8.984550 -0.406207 -0.000000 9.153500 -1.534390 -4.297960 16.377300 -0.000001 -0.000001 -4.854410 -1.690160 1.388440 6.456720 -0.000001 -0.000000 -4.422710 -0.912192 3.067570 12.994200 -0.242716 4.980390 -89.711500 -0.826063 -70.749600 5.348090 -0.000007 -0.000001 -65.695600 26.034400 -5.989040 24.328600 0.000019 0.000005 -6.544020 -0.305870 -87.342600 22.291600 -0.000001 0.000005 0.235843 5.659590 -16.008900 12.994500 -0.242716 -4.980390 87.448300 7.194440 -70.411800 -5.348130 -0.000001 -0.000004 -68.172300 30.226700 -4.578520 -24.328900 0.000322 -0.000009 8.263230 4.301550 -62.685400 -22.291500 -0.000108 -0.000004 14.517300 5.659470 -15.996000 -2.192480 -6.469440 -0.000000 172.928000 -4.282640 -28.330900 39.081100 -0.000007 -0.000012 -0.694704 0.436667 57.849700 40.985400 -0.000006 -0.000013 4.000870 -4.404410 -79.931100 11.754300 -0.000000 0.000003 -0.000089 -0.000932 -16.613400 -2.192510 6.469440 -0.000001 176.165000 6.527950 162.723000 -39.081100 -0.002282 -0.040193 -0.340952 -0.121478 109.422000 -40.985400 0.000008 0.000006 13.347100 -9.482290 -37.594800 -11.754300 -0.000006 -0.000006 -0.027133 -0.204011 -24.924400
0.000000 0.000000 0.000000 0.000000 0.000000 -0.000000 -2.238860 83.190500 23.055500 91.084100 -0.604149 -1.331900 15.735700 0.000005 -0.000001 78.964500 81.797300 -80.537600 8.984550 -0.406207 -0.000000 8.304080 -3.133260 -2.916130 16.377300 -0.000001 -0.000001 -4.410570 -1.443020 0.968432 6.456720 -0.000001 -0.000000 -3.694670 0.325491 3.166460 12.994200 -0.242716 4.980390 -89.603500 -1.186810 -71.521000 5.348090 -0.000007 -0.000001 -63.851700 24.518900 -17.720000 24.328600 0.000019 0.000005 2.245800 -0.031659 -90.747800 22.291600 -0.000001 0.000005 -1.834080 5.660310 -16.092500 12.994500 -0.242716 -4.980390 87.826700 5.886330 -69.692000 -5.348130 -0.000001 -0.000004 -71.134100 29.753200 3.051580 -24.328900 0.000322 -0.000009 3.456730 1.825580 -62.220300 -22.291500 -0.000108 -0.000004 13.414400 5.658070 -15.841300 -2.192480 -6.469440 -0.000000 174.984000 -5.473040 -22.165800 39.081100 -0.000007 -0.000012 -0.849272 0.551013 57.026700 40.985400 -0.000006 -0.000013 4.294040 -2.977030 -86.802800 11.754300 -0.000000 0.000003 -0.000110 -0.001120 -16.620400 -2.192510 6.469440 -0.000001 179.953000 5.944390 149.618000 -39.081100 -0.002282 -0.040193 -0.537218 -0.255294 115.272000 -40.985400 0.000008 0.000006 14.475200 -10.163700 -41.381700 -11.754300 -0.000006 -0.000006 -0.026756 -0.202191 -24.849100
